<svg xmlns="http://www.w3.org/2000/svg" width="1024" height="1024" viewBox="0 0 1024 1024"><g transform="translate(-68.89,-61.44) scale(1.48945)">
<path fill="#F8E315" d="M390,55 L665,135 L665,440 C665,565 535,660 390,715 C245,660 115,565 115,440 L115,135 Z"/>
<path fill="#003749" d="M152,168 L390,96 L628,168 L624,282 L606,190 L390,124 L174,190 L156,282 Z"/>
<path fill="#003749" d="M172,518 C250,605 325,648 390,676 C455,648 530,605 608,518 C530,582 455,622 390,646 C325,622 250,582 172,518 Z"/>
<path fill="#003749" fill-rule="evenodd" d="M259,240 L340,240 L257,379 L302,380 L237,499 L197,499 Z
  M366,240 L540,240 C592,240 606,282 593,334 C579,390 540,416 480,416 L417,416 L396,500 L300,500 Z
  M434,294 L505,294 C522,294 526,310 522,326 C517,346 503,356 484,356 L426,356 L409,378 L419,356 Z"/>
</g></svg>